<svg width="1406" height="160" viewBox="0 0 1406 160" fill="none" xmlns="http://www.w3.org/2000/svg">
<path d="M30.1209 33.3556V70.6424H80.1917V94.2929H30.1209V133.71H86.5837V158H0.291487V9.06596H86.5837V33.3556H30.1209ZM195.936 69.364V94.506H105.595V69.364H195.936ZM250.695 0.330214V158H220.866V0.330214H250.695ZM381.374 96.4236C381.374 100.685 381.09 104.52 380.522 107.929H294.229C294.94 116.452 297.923 123.128 303.178 127.958C308.434 132.787 314.897 135.202 322.567 135.202C333.647 135.202 341.53 130.443 346.218 120.926H378.391C374.982 132.29 368.448 141.665 358.789 149.051C349.13 156.295 337.269 159.918 323.207 159.918C311.843 159.918 301.616 157.432 292.525 152.46C283.576 147.347 276.545 140.173 271.431 130.94C266.46 121.708 263.974 111.054 263.974 98.9804C263.974 86.7645 266.46 76.0401 271.431 66.8072C276.403 57.5743 283.363 50.472 292.312 45.5005C301.261 40.5289 311.559 38.0431 323.207 38.0431C334.428 38.0431 344.442 40.4579 353.249 45.2874C362.198 50.1169 369.087 57.0061 373.917 65.9549C378.888 74.7617 381.374 84.9179 381.374 96.4236ZM350.479 87.9009C350.337 80.2304 347.567 74.1225 342.17 69.5771C336.772 64.8896 330.167 62.5459 322.354 62.5459C314.968 62.5459 308.718 64.8186 303.604 69.364C298.633 73.7674 295.579 79.9463 294.443 87.9009H350.479ZM386.954 98.5542C386.954 86.6225 389.297 76.0401 393.985 66.8072C398.814 57.5743 405.277 50.472 413.374 45.5005C421.613 40.5289 430.774 38.0431 440.86 38.0431C449.666 38.0431 457.337 39.8187 463.871 43.3698C470.547 46.9209 475.874 51.3953 479.851 56.793V39.9607H509.893V158H479.851V140.742C476.016 146.281 470.689 150.898 463.871 154.591C457.195 158.142 449.453 159.918 440.647 159.918C430.703 159.918 421.613 157.361 413.374 152.247C405.277 147.134 398.814 139.96 393.985 130.727C389.297 121.352 386.954 110.628 386.954 98.5542ZM479.851 98.9804C479.851 91.7361 478.431 85.5571 475.59 80.4435C472.749 75.1878 468.914 71.2106 464.084 68.5117C459.254 65.6708 454.07 64.2504 448.53 64.2504C442.99 64.2504 437.877 65.5998 433.189 68.2987C428.502 70.9975 424.667 74.9748 421.684 80.2304C418.843 85.3441 417.422 91.452 417.422 98.5542C417.422 105.656 418.843 111.906 421.684 117.304C424.667 122.56 428.502 126.608 433.189 129.449C438.019 132.29 443.132 133.71 448.53 133.71C454.07 133.71 459.254 132.361 464.084 129.662C468.914 126.821 472.749 122.844 475.59 117.73C478.431 112.475 479.851 106.225 479.851 98.9804ZM560.334 58.2845C564.169 52.0345 569.141 47.134 575.249 43.5829C581.498 40.0317 588.601 38.2562 596.555 38.2562V69.5771H588.672C579.297 69.5771 572.195 71.7788 567.365 76.1822C562.678 80.5856 560.334 88.256 560.334 99.1934V158H530.504V39.9607H560.334V58.2845ZM673.536 38.2562C687.598 38.2562 698.962 42.7306 707.627 51.6794C716.291 60.4862 720.624 72.8441 720.624 88.7531V158H690.794V92.8014C690.794 83.4265 688.45 76.2532 683.763 71.2816C679.076 66.168 672.684 63.6112 664.587 63.6112C656.348 63.6112 649.814 66.168 644.985 71.2816C640.297 76.2532 637.954 83.4265 637.954 92.8014V158H608.124V39.9607H637.954V54.6624C641.931 49.5488 646.973 45.5715 653.081 42.7306C659.331 39.7477 666.149 38.2562 673.536 38.2562ZM873.907 129.662H814.675L804.873 158H773.553L827.032 9.06596H861.762L915.242 158H883.708L873.907 129.662ZM865.811 105.799L844.291 43.5829L822.771 105.799H865.811ZM971.88 159.918C962.221 159.918 953.556 158.213 945.886 154.804C938.215 151.253 932.107 146.494 927.562 140.528C923.159 134.563 920.744 127.958 920.318 120.713H950.36C950.928 125.259 953.13 129.023 956.965 132.006C960.942 134.989 965.843 136.48 971.667 136.48C977.349 136.48 981.752 135.344 984.877 133.071C988.144 130.798 989.778 127.886 989.778 124.335C989.778 120.5 987.789 117.659 983.812 115.813C979.976 113.824 973.798 111.693 965.275 109.421C956.468 107.29 949.224 105.088 943.542 102.816C938.002 100.543 933.173 97.0628 929.053 92.3753C925.076 87.6878 923.087 81.3668 923.087 73.4123C923.087 66.8782 924.934 60.9123 928.627 55.5146C932.462 50.1169 937.86 45.8556 944.82 42.7306C951.923 39.6056 960.232 38.0431 969.749 38.0431C983.812 38.0431 995.033 41.5942 1003.41 48.6965C1011.79 55.6567 1016.41 65.1027 1017.26 77.0344H988.712C988.286 72.347 986.297 68.6538 982.746 65.9549C979.337 63.114 974.721 61.6936 968.897 61.6936C963.499 61.6936 959.309 62.6879 956.326 64.6765C953.485 66.6652 952.065 69.435 952.065 72.9862C952.065 76.9634 954.053 80.0174 958.031 82.148C962.008 84.1367 968.187 86.1963 976.567 88.327C985.09 90.4577 992.121 92.6594 997.661 94.9321C1003.2 97.2048 1007.96 100.756 1011.94 105.585C1016.06 110.273 1018.19 116.523 1018.33 124.335C1018.33 131.154 1016.41 137.261 1012.58 142.659C1008.88 148.057 1003.48 152.318 996.383 155.443C989.422 158.426 981.255 159.918 971.88 159.918ZM1144.02 96.4236C1144.02 100.685 1143.74 104.52 1143.17 107.929H1056.88C1057.59 116.452 1060.57 123.128 1065.83 127.958C1071.08 132.787 1077.54 135.202 1085.22 135.202C1096.29 135.202 1104.18 130.443 1108.87 120.926H1141.04C1137.63 132.29 1131.1 141.665 1121.44 149.051C1111.78 156.295 1099.92 159.918 1085.85 159.918C1074.49 159.918 1064.26 157.432 1055.17 152.46C1046.22 147.347 1039.19 140.173 1034.08 130.94C1029.11 121.708 1026.62 111.054 1026.62 98.9804C1026.62 86.7645 1029.11 76.0401 1034.08 66.8072C1039.05 57.5743 1046.01 50.472 1054.96 45.5005C1063.91 40.5289 1074.21 38.0431 1085.85 38.0431C1097.08 38.0431 1107.09 40.4579 1115.9 45.2874C1124.85 50.1169 1131.73 57.0061 1136.56 65.9549C1141.54 74.7617 1144.02 84.9179 1144.02 96.4236ZM1113.13 87.9009C1112.98 80.2304 1110.21 74.1225 1104.82 69.5771C1099.42 64.8896 1092.81 62.5459 1085 62.5459C1077.62 62.5459 1071.37 64.8186 1066.25 69.364C1061.28 73.7674 1058.23 79.9463 1057.09 87.9009H1113.13ZM1149.6 98.5542C1149.6 86.6225 1151.95 76.0401 1156.63 66.8072C1161.46 57.5743 1167.93 50.472 1176.02 45.5005C1184.26 40.5289 1193.42 38.0431 1203.51 38.0431C1212.31 38.0431 1219.98 39.8187 1226.52 43.3698C1233.19 46.9209 1238.52 51.3953 1242.5 56.793V39.9607H1272.54V158H1242.5V140.742C1238.66 146.281 1233.34 150.898 1226.52 154.591C1219.84 158.142 1212.1 159.918 1203.29 159.918C1193.35 159.918 1184.26 157.361 1176.02 152.247C1167.93 147.134 1161.46 139.96 1156.63 130.727C1151.95 121.352 1149.6 110.628 1149.6 98.5542ZM1242.5 98.9804C1242.5 91.7361 1241.08 85.5571 1238.24 80.4435C1235.4 75.1878 1231.56 71.2106 1226.73 68.5117C1221.9 65.6708 1216.72 64.2504 1211.18 64.2504C1205.64 64.2504 1200.52 65.5998 1195.84 68.2987C1191.15 70.9975 1187.31 74.9748 1184.33 80.2304C1181.49 85.3441 1180.07 91.452 1180.07 98.5542C1180.07 105.656 1181.49 111.906 1184.33 117.304C1187.31 122.56 1191.15 126.608 1195.84 129.449C1200.67 132.29 1205.78 133.71 1211.18 133.71C1216.72 133.71 1221.9 132.361 1226.73 129.662C1231.56 126.821 1235.4 122.844 1238.24 117.73C1241.08 112.475 1242.5 106.225 1242.5 98.9804ZM1358.56 38.2562C1372.63 38.2562 1383.99 42.7306 1392.65 51.6794C1401.32 60.4862 1405.65 72.8441 1405.65 88.7531V158H1375.82V92.8014C1375.82 83.4265 1373.48 76.2532 1368.79 71.2816C1364.1 66.168 1357.71 63.6112 1349.61 63.6112C1341.38 63.6112 1334.84 66.168 1330.01 71.2816C1325.33 76.2532 1322.98 83.4265 1322.98 92.8014V158H1293.15V39.9607H1322.98V54.6624C1326.96 49.5488 1332 45.5715 1338.11 42.7306C1344.36 39.7477 1351.18 38.2562 1358.56 38.2562Z" fill="white"/>
</svg>
