<svg width="420" height="153" viewBox="0 0 420 153" fill="none" xmlns="http://www.w3.org/2000/svg">
<path d="M76.3253 152.491C62.4049 152.491 49.6209 149.224 37.9732 142.69C26.3255 136.156 17.0926 127.136 10.2744 115.631C3.45628 103.983 0.0471984 90.844 0.0471984 76.2134C0.0471984 61.7248 3.45628 48.7277 10.2744 37.2221C17.0926 25.5744 26.3255 16.4835 37.9732 9.94945C49.6209 3.4154 62.4049 0.148368 76.3253 0.148368C90.3877 0.148368 103.172 3.4154 114.677 9.94945C126.325 16.4835 135.487 25.5744 142.163 37.2221C148.981 48.7277 152.39 61.7248 152.39 76.2134C152.39 90.844 148.981 103.983 142.163 115.631C135.487 127.136 126.325 136.156 114.677 142.69C103.03 149.224 90.2457 152.491 76.3253 152.491ZM76.3253 125.858C85.2741 125.858 93.1576 123.869 99.9758 119.892C106.794 115.773 112.121 109.949 115.956 102.421C119.791 94.8923 121.709 86.1565 121.709 76.2134C121.709 66.2702 119.791 57.6055 115.956 50.2192C112.121 42.6908 106.794 36.938 99.9758 32.9607C93.1576 28.9835 85.2741 26.9948 76.3253 26.9948C67.3765 26.9948 59.4219 28.9835 52.4618 32.9607C45.6436 36.938 40.3169 42.6908 36.4817 50.2192C32.6465 57.6055 30.7289 66.2702 30.7289 76.2134C30.7289 86.1565 32.6465 94.8923 36.4817 102.421C40.3169 109.949 45.6436 115.773 52.4618 119.892C59.4219 123.869 67.3765 125.858 76.3253 125.858ZM274.511 48.3016C274.511 56.2561 272.594 63.7134 268.758 70.6736C265.065 77.6338 259.17 83.2446 251.074 87.506C243.119 91.7673 233.034 93.898 220.818 93.898H195.889V151H166.06V2.27904H220.818C232.324 2.27904 242.125 4.26767 250.221 8.24492C258.318 12.2222 264.355 17.6909 268.332 24.6511C272.451 31.6113 274.511 39.4948 274.511 48.3016ZM219.54 69.8214C227.778 69.8214 233.886 67.9748 237.864 64.2816C241.841 60.4464 243.829 55.1197 243.829 48.3016C243.829 33.813 235.733 26.5687 219.54 26.5687H195.889V69.8214H219.54ZM378.36 122.662H319.127L309.326 151H278.005L331.485 2.06596H366.215L419.695 151H388.161L378.36 122.662ZM370.263 98.7985L348.743 36.5829L327.224 98.7985H370.263Z" fill="white"/>
</svg>
