<svg width="913" height="160" viewBox="0 0 913 160" fill="none" xmlns="http://www.w3.org/2000/svg">
<path d="M76.3253 159.491C62.4049 159.491 49.6209 156.224 37.9732 149.69C26.3255 143.156 17.0926 134.136 10.2744 122.631C3.45628 110.983 0.0471984 97.844 0.0471984 83.2134C0.0471984 68.7248 3.45628 55.7277 10.2744 44.2221C17.0926 32.5744 26.3255 23.4835 37.9732 16.9495C49.6209 10.4154 62.4049 7.14837 76.3253 7.14837C90.3877 7.14837 103.172 10.4154 114.677 16.9495C126.325 23.4835 135.487 32.5744 142.163 44.2221C148.981 55.7277 152.39 68.7248 152.39 83.2134C152.39 97.844 148.981 110.983 142.163 122.631C135.487 134.136 126.325 143.156 114.677 149.69C103.03 156.224 90.2457 159.491 76.3253 159.491ZM76.3253 132.858C85.2741 132.858 93.1576 130.869 99.9758 126.892C106.794 122.773 112.121 116.949 115.956 109.421C119.791 101.892 121.709 93.1565 121.709 83.2134C121.709 73.2702 119.791 64.6055 115.956 57.2192C112.121 49.6908 106.794 43.938 99.9758 39.9607C93.1576 35.9835 85.2741 33.9948 76.3253 33.9948C67.3765 33.9948 59.4219 35.9835 52.4618 39.9607C45.6436 43.938 40.3169 49.6908 36.4817 57.2192C32.6465 64.6055 30.7289 73.2702 30.7289 83.2134C30.7289 93.1565 32.6465 101.892 36.4817 109.421C40.3169 116.949 45.6436 122.773 52.4618 126.892C59.4219 130.869 67.3765 132.858 76.3253 132.858ZM312.65 38.2562C327.139 38.2562 338.786 42.7306 347.593 51.6794C356.542 60.4862 361.016 72.8441 361.016 88.7531V158H331.187V92.8014C331.187 83.5685 328.843 76.5373 324.156 71.7077C319.468 66.7362 313.076 64.2504 304.98 64.2504C296.883 64.2504 290.42 66.7362 285.591 71.7077C280.903 76.5373 278.559 83.5685 278.559 92.8014V158H248.73V92.8014C248.73 83.5685 246.386 76.5373 241.699 71.7077C237.011 66.7362 230.619 64.2504 222.523 64.2504C214.284 64.2504 207.75 66.7362 202.921 71.7077C198.233 76.5373 195.889 83.5685 195.889 92.8014V158H166.06V39.9607H195.889V54.2362C199.725 49.2647 204.625 45.3584 210.591 42.5175C216.699 39.6766 223.375 38.2562 230.619 38.2562C239.852 38.2562 248.091 40.2448 255.335 44.2221C262.579 48.0573 268.19 53.597 272.167 60.8413C276.003 54.0232 281.542 48.5544 288.787 44.4351C296.173 40.3158 304.128 38.2562 312.65 38.2562ZM425.97 159.918C416.311 159.918 407.647 158.213 399.976 154.804C392.306 151.253 386.198 146.494 381.652 140.528C377.249 134.563 374.834 127.958 374.408 120.713H404.451C405.019 125.259 407.22 129.023 411.056 132.006C415.033 134.989 419.933 136.48 425.757 136.48C431.439 136.48 435.842 135.344 438.967 133.071C442.234 130.798 443.868 127.886 443.868 124.335C443.868 120.5 441.879 117.659 437.902 115.813C434.067 113.824 427.888 111.693 419.365 109.421C410.558 107.29 403.314 105.088 397.632 102.816C392.093 100.543 387.263 97.0628 383.144 92.3753C379.167 87.6878 377.178 81.3668 377.178 73.4123C377.178 66.8782 379.025 60.9123 382.718 55.5146C386.553 50.1169 391.951 45.8556 398.911 42.7306C406.013 39.6056 414.323 38.0431 423.84 38.0431C437.902 38.0431 449.124 41.5942 457.504 48.6965C465.885 55.6567 470.501 65.1027 471.354 77.0344H442.803C442.377 72.347 440.388 68.6538 436.837 65.9549C433.428 63.114 428.811 61.6936 422.987 61.6936C417.59 61.6936 413.399 62.6879 410.416 64.6765C407.576 66.6652 406.155 69.435 406.155 72.9862C406.155 76.9634 408.144 80.0174 412.121 82.148C416.098 84.1367 422.277 86.1963 430.658 88.327C439.181 90.4577 446.212 92.6594 451.751 94.9321C457.291 97.2048 462.05 100.756 466.027 105.585C470.146 110.273 472.277 116.523 472.419 124.335C472.419 131.154 470.501 137.261 466.666 142.659C462.973 148.057 457.575 152.318 450.473 155.443C443.513 158.426 435.345 159.918 425.97 159.918ZM598.112 96.4236C598.112 100.685 597.828 104.52 597.26 107.929H510.968C511.678 116.452 514.661 123.128 519.916 127.958C525.172 132.787 531.635 135.202 539.306 135.202C550.385 135.202 558.268 130.443 562.956 120.926H595.129C591.72 132.29 585.186 141.665 575.527 149.051C565.868 156.295 554.007 159.918 539.945 159.918C528.581 159.918 518.354 157.432 509.263 152.46C500.314 147.347 493.283 140.173 488.169 130.94C483.198 121.708 480.712 111.054 480.712 98.9804C480.712 86.7645 483.198 76.0401 488.169 66.8072C493.141 57.5743 500.101 50.472 509.05 45.5005C517.999 40.5289 528.297 38.0431 539.945 38.0431C551.166 38.0431 561.18 40.4579 569.987 45.2874C578.936 50.1169 585.825 57.0061 590.655 65.9549C595.626 74.7617 598.112 84.9179 598.112 96.4236ZM567.217 87.9009C567.075 80.2304 564.305 74.1225 558.908 69.5771C553.51 64.8896 546.905 62.5459 539.092 62.5459C531.706 62.5459 525.456 64.8186 520.343 69.364C515.371 73.7674 512.317 79.9463 511.181 87.9009H567.217ZM646.092 64.4635V121.565C646.092 125.543 647.015 128.455 648.862 130.301C650.851 132.006 654.118 132.858 658.663 132.858H672.512V158H653.763C628.621 158 616.05 145.784 616.05 121.352V64.4635H601.987V39.9607H616.05V10.7705H646.092V39.9607H672.512V64.4635H646.092ZM755.331 158L715.274 107.716V158H685.445V0.330214H715.274V90.0315L754.905 39.9607H793.683L741.694 99.1934L794.109 158H755.331ZM912.784 39.9607V158H882.742V143.085C878.906 148.199 873.864 152.247 867.614 155.23C861.506 158.071 854.83 159.491 847.586 159.491C838.353 159.491 830.185 157.574 823.083 153.739C815.981 149.761 810.37 144.009 806.251 136.48C802.273 128.81 800.285 119.719 800.285 109.208V39.9607H830.114V104.946C830.114 114.321 832.458 121.565 837.145 126.679C841.833 131.651 848.225 134.136 856.321 134.136C864.56 134.136 871.023 131.651 875.71 126.679C880.398 121.565 882.742 114.321 882.742 104.946V39.9607H912.784Z" fill="white"/>
</svg>
