<svg width="1303" height="223" viewBox="0 0 1303 223" fill="none" xmlns="http://www.w3.org/2000/svg">
<path d="M55.6407 168.491C45.2714 168.491 35.8965 166.716 27.5158 163.165C19.2772 159.614 12.7432 154.5 7.91363 147.824C3.0841 141.148 0.59832 133.264 0.456275 124.173H32.4164C32.8425 130.281 34.9732 135.111 38.8084 138.662C42.7856 142.213 48.1833 143.989 55.0015 143.989C61.9617 143.989 67.4304 142.355 71.4077 139.088C75.3849 135.679 77.3736 131.276 77.3736 125.878C77.3736 121.475 76.0241 117.852 73.3253 115.012C70.6264 112.171 67.2174 109.969 63.0981 108.406C59.1208 106.702 53.5811 104.855 46.4788 102.867C36.8198 100.026 28.9363 97.256 22.8283 94.5571C16.8625 91.7162 11.6778 87.5259 7.27443 81.9862C3.01308 76.3044 0.88241 68.776 0.88241 59.401C0.88241 50.5942 3.08411 42.9238 7.4875 36.3898C11.8909 29.8557 18.0698 24.8841 26.0243 21.475C33.9789 17.9239 43.0697 16.1484 53.297 16.1484C68.6378 16.1484 81.0667 19.9126 90.5837 27.4409C100.243 34.8273 105.569 45.1965 106.564 58.5488H73.7514C73.4673 53.4351 71.2656 49.2448 67.1463 45.9778C63.1691 42.5687 57.8424 40.8642 51.1663 40.8642C45.3424 40.8642 40.655 42.3556 37.1038 45.3386C33.6948 48.3215 31.9902 52.6539 31.9902 58.3357C31.9902 62.3129 33.2686 65.651 35.8254 68.3498C38.5243 70.9067 41.7913 73.0373 45.6265 74.7419C49.6038 76.3044 55.1435 78.1509 62.2458 80.2816C71.9048 83.1225 79.7883 85.9634 85.8963 88.8043C92.0042 91.6452 97.2598 95.9066 101.663 101.588C106.067 107.27 108.268 114.727 108.268 123.96C108.268 131.915 106.209 139.301 102.089 146.119C97.9701 152.938 91.9332 158.406 83.9787 162.526C76.0241 166.503 66.5782 168.491 55.6407 168.491ZM272.197 47.2562C286.686 47.2562 298.333 51.7306 307.14 60.6794C316.089 69.4862 320.563 81.8441 320.563 97.7531V167H290.734V101.801C290.734 92.5685 288.39 85.5373 283.703 80.7077C279.015 75.7362 272.623 73.2504 264.527 73.2504C256.43 73.2504 249.967 75.7362 245.137 80.7077C240.45 85.5373 238.106 92.5685 238.106 101.801V167H208.277V101.801C208.277 92.5685 205.933 85.5373 201.246 80.7077C196.558 75.7362 190.166 73.2504 182.07 73.2504C173.831 73.2504 167.297 75.7362 162.467 80.7077C157.78 85.5373 155.436 92.5685 155.436 101.801V167H125.607V48.9607H155.436V63.2362C159.271 58.2647 164.172 54.3584 170.138 51.5175C176.246 48.6766 182.922 47.2562 190.166 47.2562C199.399 47.2562 207.638 49.2448 214.882 53.2221C222.126 57.0573 227.737 62.597 231.714 69.8413C235.549 63.0232 241.089 57.5544 248.333 53.4351C255.72 49.3158 263.674 47.2562 272.197 47.2562ZM332.676 107.554C332.676 95.6225 335.02 85.0401 339.708 75.8072C344.537 66.5743 351 59.472 359.097 54.5005C367.335 49.5289 376.497 47.0431 386.582 47.0431C395.389 47.0431 403.06 48.8187 409.594 52.3698C416.27 55.9209 421.597 60.3953 425.574 65.793V48.9607H455.616V167H425.574V149.742C421.739 155.281 416.412 159.898 409.594 163.591C402.918 167.142 395.176 168.918 386.369 168.918C376.426 168.918 367.335 166.361 359.097 161.247C351 156.134 344.537 148.96 339.708 139.727C335.02 130.352 332.676 119.628 332.676 107.554ZM425.574 107.98C425.574 100.736 424.153 94.5571 421.312 89.4435C418.472 84.1878 414.636 80.2106 409.807 77.5117C404.977 74.6708 399.793 73.2504 394.253 73.2504C388.713 73.2504 383.6 74.5998 378.912 77.2987C374.225 79.9975 370.389 83.9748 367.406 89.2304C364.565 94.3441 363.145 100.452 363.145 107.554C363.145 114.656 364.565 120.906 367.406 126.304C370.389 131.56 374.225 135.608 378.912 138.449C383.742 141.29 388.855 142.71 394.253 142.71C399.793 142.71 404.977 141.361 409.807 138.662C414.636 135.821 418.472 131.844 421.312 126.73C424.153 121.475 425.574 115.225 425.574 107.98ZM506.057 67.2845C509.892 61.0345 514.863 56.134 520.971 52.5829C527.221 49.0317 534.324 47.2562 542.278 47.2562V78.5771H534.395C525.02 78.5771 517.917 80.7788 513.088 85.1822C508.4 89.5856 506.057 97.256 506.057 108.193V167H476.227V48.9607H506.057V67.2845ZM588.577 73.4635V130.565C588.577 134.543 589.5 137.455 591.347 139.301C593.335 141.006 596.602 141.858 601.148 141.858H614.997V167H596.247C571.105 167 558.534 154.784 558.534 130.352V73.4635H544.472V48.9607H558.534V19.7705H588.577V48.9607H614.997V73.4635H588.577ZM721.526 168.491C711.157 168.491 701.782 166.716 693.401 163.165C685.162 159.614 678.628 154.5 673.799 147.824C668.969 141.148 666.484 133.264 666.341 124.173H698.302C698.728 130.281 700.858 135.111 704.694 138.662C708.671 142.213 714.069 143.989 720.887 143.989C727.847 143.989 733.316 142.355 737.293 139.088C741.27 135.679 743.259 131.276 743.259 125.878C743.259 121.475 741.909 117.852 739.21 115.012C736.512 112.171 733.103 109.969 728.983 108.406C725.006 106.702 719.466 104.855 712.364 102.867C702.705 100.026 694.821 97.256 688.714 94.5571C682.748 91.7162 677.563 87.5259 673.16 81.9862C668.898 76.3044 666.768 68.776 666.768 59.401C666.768 50.5942 668.969 42.9238 673.373 36.3898C677.776 29.8557 683.955 24.8841 691.91 21.475C699.864 17.9239 708.955 16.1484 719.182 16.1484C734.523 16.1484 746.952 19.9126 756.469 27.4409C766.128 34.8273 771.455 45.1965 772.449 58.5488H739.637C739.353 53.4351 737.151 49.2448 733.032 45.9778C729.054 42.5687 723.728 40.8642 717.051 40.8642C711.228 40.8642 706.54 42.3556 702.989 45.3386C699.58 48.3215 697.875 52.6539 697.875 58.3357C697.875 62.3129 699.154 65.651 701.711 68.3498C704.409 70.9067 707.677 73.0373 711.512 74.7419C715.489 76.3044 721.029 78.1509 728.131 80.2816C737.79 83.1225 745.674 85.9634 751.781 88.8043C757.889 91.6452 763.145 95.9066 767.548 101.588C771.952 107.27 774.154 114.727 774.154 123.96C774.154 131.915 772.094 139.301 767.975 146.119C763.855 152.938 757.818 158.406 749.864 162.526C741.909 166.503 732.463 168.491 721.526 168.491ZM783.821 107.554C783.821 95.6225 786.165 85.0401 790.853 75.8072C795.682 66.5743 802.145 59.472 810.242 54.5005C818.48 49.5289 827.642 47.0431 837.727 47.0431C846.534 47.0431 854.205 48.8187 860.739 52.3698C867.415 55.9209 872.742 60.3953 876.719 65.793V48.9607H906.761V167H876.719V149.742C872.884 155.281 867.557 159.898 860.739 163.591C854.063 167.142 846.321 168.918 837.514 168.918C827.571 168.918 818.48 166.361 810.242 161.247C802.145 156.134 795.682 148.96 790.853 139.727C786.165 130.352 783.821 119.628 783.821 107.554ZM876.719 107.98C876.719 100.736 875.298 94.5571 872.457 89.4435C869.617 84.1878 865.781 80.2106 860.952 77.5117C856.122 74.6708 850.938 73.2504 845.398 73.2504C839.858 73.2504 834.745 74.5998 830.057 77.2987C825.37 79.9975 821.534 83.9748 818.551 89.2304C815.711 94.3441 814.29 100.452 814.29 107.554C814.29 114.656 815.711 120.906 818.551 126.304C821.534 131.56 825.37 135.608 830.057 138.449C834.887 141.29 840 142.71 845.398 142.71C850.938 142.71 856.122 141.361 860.952 138.662C865.781 135.821 869.617 131.844 872.457 126.73C875.298 121.475 876.719 115.225 876.719 107.98ZM981.491 73.4635H960.824V167H930.568V73.4635H917.145V48.9607H930.568V42.9948C930.568 28.5063 934.687 17.8529 942.926 11.0347C951.165 4.21659 963.594 1.02059 980.213 1.44672V26.5887C972.969 26.4466 967.926 27.654 965.085 30.2108C962.244 32.7676 960.824 37.3841 960.824 44.0602V48.9607H981.491V73.4635ZM1102.03 105.424C1102.03 109.685 1101.74 113.52 1101.18 116.929H1014.88C1015.59 125.452 1018.58 132.128 1023.83 136.958C1029.09 141.787 1035.55 144.202 1043.22 144.202C1054.3 144.202 1062.19 139.443 1066.87 129.926H1099.05C1095.64 141.29 1089.1 150.665 1079.44 158.051C1069.78 165.295 1057.92 168.918 1043.86 168.918C1032.5 168.918 1022.27 166.432 1013.18 161.46C1004.23 156.347 997.2 149.173 992.086 139.94C987.115 130.708 984.629 120.054 984.629 107.98C984.629 95.7645 987.115 85.0401 992.086 75.8072C997.058 66.5743 1004.02 59.472 1012.97 54.5005C1021.92 49.5289 1032.21 47.0431 1043.86 47.0431C1055.08 47.0431 1065.1 49.4579 1073.9 54.2874C1082.85 59.1169 1089.74 66.0061 1094.57 74.9549C1099.54 83.7617 1102.03 93.9179 1102.03 105.424ZM1071.13 96.9009C1070.99 89.2304 1068.22 83.1225 1062.82 78.5771C1057.43 73.8896 1050.82 71.5459 1043.01 71.5459C1035.62 71.5459 1029.37 73.8186 1024.26 78.364C1019.29 82.7674 1016.23 88.9463 1015.1 96.9009H1071.13ZM1150.01 73.4635V130.565C1150.01 134.543 1150.93 137.455 1152.78 139.301C1154.77 141.006 1158.03 141.858 1162.58 141.858H1176.43V167H1157.68C1132.54 167 1119.97 154.784 1119.97 130.352V73.4635H1105.9V48.9607H1119.97V19.7705H1150.01V48.9607H1176.43V73.4635H1150.01ZM1302.29 48.9607L1229.21 222.824H1197.46L1223.03 164.017L1175.73 48.9607H1209.18L1239.65 131.418L1270.54 48.9607H1302.29Z" fill="white"/>
</svg>
