<svg width="819" height="149" viewBox="0 0 819 149" fill="none" xmlns="http://www.w3.org/2000/svg">
<path d="M84.24 149L30.1209 82.7361V149H0.291487V0.279038H30.1209V66.9691L84.24 0.279038H120.248L58.885 74.0003L121.953 149H84.24ZM241.502 46.3016C241.502 54.2561 239.584 61.7134 235.749 68.6736C232.056 75.6338 226.161 81.2446 218.065 85.506C210.11 89.7673 200.025 91.898 187.809 91.898H162.88V149H133.051V0.279038H187.809C199.315 0.279038 209.116 2.26767 217.212 6.24492C225.309 10.2222 231.346 15.6909 235.323 22.6511C239.442 29.6113 241.502 37.4948 241.502 46.3016ZM186.531 67.8214C194.769 67.8214 200.877 65.9748 204.854 62.2816C208.832 58.4464 210.82 53.1197 210.82 46.3016C210.82 31.813 202.724 24.5687 186.531 24.5687H162.88V67.8214H186.531ZM362.609 46.3016C362.609 54.2561 360.691 61.7134 356.856 68.6736C353.163 75.6338 347.268 81.2446 339.172 85.506C331.217 89.7673 321.132 91.898 308.916 91.898H283.987V149H254.158V0.279038H308.916C320.422 0.279038 330.223 2.26767 338.319 6.24492C346.416 10.2222 352.453 15.6909 356.43 22.6511C360.549 29.6113 362.609 37.4948 362.609 46.3016ZM307.638 67.8214C315.876 67.8214 321.984 65.9748 325.961 62.2816C329.939 58.4464 331.927 53.1197 331.927 46.3016C331.927 31.813 323.831 24.5687 307.638 24.5687H283.987V67.8214H307.638ZM469.501 0.279038C485.126 0.279038 498.833 3.333 510.623 9.44093C522.554 15.5489 531.716 24.2846 538.108 35.6482C544.642 46.8698 547.909 59.9379 547.909 74.8526C547.909 89.7673 544.642 102.835 538.108 114.057C531.716 125.136 522.554 133.73 510.623 139.838C498.833 145.946 485.126 149 469.501 149H417.512V0.279038H469.501ZM468.435 123.645C484.06 123.645 496.134 119.384 504.657 110.861C513.179 102.338 517.441 90.3355 517.441 74.8526C517.441 59.3697 513.179 47.2959 504.657 38.6311C496.134 29.8244 484.06 25.421 468.435 25.421H447.342V123.645H468.435ZM653.547 0.279038V24.3556H591.545V62.4947H639.059V86.1452H591.545V149H561.715V0.279038H653.547ZM696.006 0.279038V149H666.177V0.279038H696.006ZM818.162 0.279038V24.3556H778.531V149H748.702V24.3556H709.071V0.279038H818.162Z" fill="white"/>
</svg>
